<?xml version="1.0" encoding="UTF-8"?>
<svg version="1.1" xmlns="http://www.w3.org/2000/svg" width="475" height="475">
<path d="M0 0 C156.75 0 313.5 0 475 0 C475 156.75 475 313.5 475 475 C318.25 475 161.5 475 0 475 C0 318.25 0 161.5 0 0 Z " fill="#000000" transform="translate(0,0)"/>
<path d="M0 0 C67.23869956 0 67.23869956 0 88.30859375 21.0234375 C106.86526022 40.77963416 107.87513003 69.02461798 107.17919922 94.53515625 C106.13185589 114.78569642 100.51991177 135.99422596 85 150 C84.48566406 150.52980469 83.97132813 151.05960938 83.44140625 151.60546875 C61.94035262 172.55165648 26.72492015 168 0 168 C0 112.56 0 57.12 0 0 Z " fill="#000101" transform="translate(48,122)"/>
<path d="M0 0 C1.28959625 -0.00637985 2.5791925 -0.0127597 3.90786743 -0.01933289 C5.32708702 -0.02086358 6.74630711 -0.02197646 8.16552734 -0.02270508 C9.62649569 -0.02592124 11.08746372 -0.02928558 12.5484314 -0.03279114 C15.62360375 -0.03879207 18.69874799 -0.04063058 21.77392578 -0.04003906 C25.6689746 -0.03993858 29.56383639 -0.05346667 33.45884132 -0.07081127 C36.48593935 -0.08207983 39.51299471 -0.08395362 42.54011154 -0.08342934 C43.97267666 -0.08459203 45.40524353 -0.08891466 46.83778763 -0.0967617 C62.07870906 -0.172283 76.34874858 1.3836086 90.87646484 6.14526367 C91.61123047 6.38116211 92.34599609 6.61706055 93.10302734 6.86010742 C95.07119178 7.54451028 96.96602372 8.31288337 98.87646484 9.14526367 C99.76462891 9.53069336 100.65279297 9.91612305 101.56787109 10.31323242 C118.90796183 18.38417427 131.20994903 30.90014682 140.87646484 47.14526367 C141.29927734 47.85553711 141.72208984 48.56581055 142.15771484 49.29760742 C157.69984555 77.93774345 156.74788082 119.65019677 147.87646484 150.14526367 C147.58900391 151.28866211 147.30154297 152.43206055 147.00537109 153.61010742 C140.88456485 175.42829235 123.84437965 193.41213715 104.51928711 204.34838867 C81.80963024 216.43612651 54.10735014 216.84692989 28.99682617 216.72167969 C25.35642406 216.70417228 21.71755391 216.72847905 18.07732105 216.76316929 C15.23676734 216.785105 12.39658682 216.78371719 9.55597496 216.77540398 C7.56566111 216.77419701 5.57536983 216.79403056 3.5851593 216.81434631 C-6.33427144 216.71104528 -6.33427144 216.71104528 -9.41381836 213.66845703 C-9.9780249 212.83580322 -10.54223145 212.00314941 -11.12353516 211.14526367 C-11.45353516 210.81526367 -11.78353516 210.48526367 -12.12353516 210.14526367 C-12.23021172 207.52643565 -12.27131952 204.93366283 -12.27070618 202.31402588 C-12.27622121 201.06846896 -12.27622121 201.06846896 -12.28184766 199.79774928 C-12.2929301 196.99333391 -12.29673603 194.18895553 -12.30053711 191.38452148 C-12.30679834 189.3826587 -12.31344483 187.38079709 -12.32044983 185.37893677 C-12.33789185 179.92429282 -12.34842038 174.46965766 -12.35665536 169.01499271 C-12.3617989 165.60997679 -12.36787493 162.20496363 -12.37416649 158.79994965 C-12.39322778 148.15486348 -12.40745672 137.5097843 -12.41577846 126.86468434 C-12.42555427 114.56125286 -12.45187894 102.25800112 -12.49227935 89.954633 C-12.52240447 80.4556733 -12.53724392 70.95676522 -12.54055947 61.45775867 C-12.54291417 55.77953046 -12.55192898 50.10149408 -12.57702065 44.42331696 C-12.60024318 39.08158517 -12.60455802 33.74017228 -12.59425926 28.39840317 C-12.59376236 26.43639696 -12.60012791 24.47437537 -12.61381531 22.51241684 C-12.63144374 19.83603794 -12.62447297 17.16081467 -12.61128235 14.48443604 C-12.62225159 13.70592891 -12.63322084 12.92742178 -12.64452249 12.12532353 C-12.6003285 8.41737404 -12.24597131 6.33537369 -10.21805096 3.1865654 C-6.79746583 -0.14711503 -4.68653375 0.01570407 0 0 Z M15.87646484 24.14526367 C15.87646484 79.58526367 15.87646484 135.02526367 15.87646484 192.14526367 C61.23455051 193.71799058 61.23455051 193.71799058 100.92333984 175.11401367 C118.5156208 157.38099446 123.13426035 132.53553683 123.18896484 108.52026367 C123.09523557 95.38815573 122.72898929 82.50332827 117.87646484 70.14526367 C117.60060547 69.28803711 117.32474609 68.43081055 117.04052734 67.54760742 C111.35095147 50.26004995 99.96849194 39.44538482 84.25146484 30.95776367 C60.88616675 20.64954393 43.22836487 24.14526367 15.87646484 24.14526367 Z " fill="#6E90BC" transform="translate(32.12353515625,97.854736328125)"/>
<path d="M0 0 C1.1770752 0.00418945 2.35415039 0.00837891 3.56689453 0.01269531 C13.27344622 0.13735932 22.42987289 1.11150787 31.875 3.3125 C32.99261719 3.56773438 34.11023438 3.82296875 35.26171875 4.0859375 C46.93389441 7.21574598 58.91847018 13.1217193 67.875 21.3125 C69.56425865 24.69101729 69.10176286 28.47536646 69.125 32.1875 C69.1559375 33.41146484 69.1559375 33.41146484 69.1875 34.66015625 C69.22701304 40.71552943 69.22701304 40.71552943 67.359375 43.8828125 C66.62460937 44.59050781 66.62460937 44.59050781 65.875 45.3125 C60.58271758 45.03395882 57.07975267 42.84651343 52.73046875 40.078125 C36.44242008 30.00671871 20.20296769 25.62926225 1.125 25.6875 C0.10731033 25.68621597 0.10731033 25.68621597 -0.93093872 25.68490601 C-12.95690211 25.72808033 -23.4097615 27.84248314 -34.125 33.3125 C-34.90359375 33.70953125 -35.6821875 34.1065625 -36.484375 34.515625 C-56.11965636 45.39632232 -66.65211084 63.38090404 -72.74072266 84.44238281 C-74.78541956 92.99159982 -74.61055005 101.82197993 -74.625 110.5625 C-74.62701416 111.40643311 -74.62902832 112.25036621 -74.63110352 113.11987305 C-74.59013323 138.52386029 -68.29122307 159.60287447 -50.265625 178.234375 C-35.83243525 191.71330427 -17.8131993 196.48438711 1.4375 196.5 C2.23607422 196.51224609 3.03464844 196.52449219 3.85742188 196.53710938 C9.21098654 196.55019878 13.72692913 195.78259083 18.875 194.3125 C20.793125 193.879375 20.793125 193.879375 22.75 193.4375 C26.87767385 192.42597518 30.68923979 190.81393041 34.578125 189.1171875 C36.875 188.3125 36.875 188.3125 40.875 188.3125 C40.875 167.1925 40.875 146.0725 40.875 124.3125 C23.56749981 124.47080844 23.56749981 124.47080844 6.26049805 124.67285156 C4.09424627 124.6845316 1.92798573 124.69472503 -0.23828125 124.703125 C-1.36729858 124.72358887 -2.49631592 124.74405273 -3.6595459 124.76513672 C-5.27306946 124.76586182 -5.27306946 124.76586182 -6.91918945 124.76660156 C-7.85406693 124.77548401 -8.7889444 124.78436646 -9.75215149 124.79351807 C-12.125 124.3125 -12.125 124.3125 -13.92546082 122.52069092 C-15.72726637 119.2038083 -15.55955911 115.92612055 -15.5 112.25 C-15.51160156 111.53005859 -15.52320313 110.81011719 -15.53515625 110.06835938 C-15.50644646 104.91495178 -15.50644646 104.91495178 -14.04672241 102.60948181 C-11.08689362 100.61187587 -8.51850174 100.92303867 -4.97900391 100.90844727 C-4.2550795 100.90158401 -3.53115509 100.89472076 -2.78529358 100.88764954 C-0.39051738 100.86933821 2.00360625 100.87322561 4.3984375 100.87890625 C6.06369236 100.87434583 7.72894533 100.86904068 9.39419556 100.86302185 C12.88624714 100.85408176 16.37807016 100.85652319 19.87011719 100.86645508 C24.34151725 100.87793401 28.81212634 100.85775491 33.28342247 100.82853794 C36.72359213 100.81017333 40.16357245 100.81046909 43.60377884 100.81617546 C45.25198093 100.81632871 46.90019582 100.8102814 48.54835129 100.79788399 C50.85614015 100.78297374 53.16247101 100.79365023 55.47021484 100.81079102 C56.78243011 100.81095718 58.09464539 100.81112335 59.44662476 100.81129456 C63.4207808 101.39228949 65.06004363 102.50566492 67.875 105.3125 C69.5197069 108.60191381 69.04045352 112.25717395 69.05200195 115.8737793 C69.05857315 116.76015579 69.06514435 117.64653229 69.07191467 118.55976868 C69.0916735 121.50208618 69.10331729 124.44435253 69.11328125 127.38671875 C69.11735678 128.39114328 69.1214323 129.39556782 69.12563133 130.43042946 C69.14650516 135.74878357 69.16080002 141.0671118 69.17016602 146.38549805 C69.18122067 151.87560642 69.21560609 157.36530838 69.25533772 162.85527325 C69.28150522 167.07868699 69.28985809 171.30200404 69.29344749 175.52549171 C69.29831472 177.54885407 69.30993256 179.57221207 69.32848549 181.59549522 C69.35287481 184.43207152 69.35191197 187.26759864 69.3449707 190.10424805 C69.36418579 191.35218643 69.36418579 191.35218643 69.38378906 192.62533569 C69.33314463 198.32031878 68.1173437 201.60932091 64.875 206.3125 C50.21288178 219.13013 21.36608919 221.49986197 3.05126953 221.49780273 C0.90766858 221.49996702 -1.23539745 221.51810751 -3.37890625 221.53710938 C-31.51364091 221.6527205 -56.10901362 213.82386667 -76.75 194.125 C-91.27259827 179.08521518 -104.23925858 155.46426465 -105.01953125 134.0625 C-105.01674585 132.20184493 -105.01674585 132.20184493 -106.125 130.3125 C-108.36772065 92.11200712 -101.57916949 59.6368406 -76.16015625 30.0234375 C-56.64178805 9.30838288 -27.84240907 -0.13662028 0 0 Z " fill="#6E90BB" transform="translate(322.125,94.6875)"/>
<path d="M0 0 C5.57253283 4.34899845 9.6017208 10.73688581 10.921875 17.71484375 C11.7607809 27.20093355 9.6914106 34.33522708 3.80078125 41.8203125 C-2.05307942 47.72285392 -8.98544771 50.79974044 -17.203125 51.02734375 C-25.43697895 50.9285375 -32.49601996 48.11027467 -38.54296875 42.4921875 C-44.22512229 35.91361279 -46.46894871 28.9989327 -46.35546875 20.4375 C-45.58165663 12.84106268 -41.96541743 5.61676308 -36.078125 0.71484375 C-24.03780733 -6.61984344 -12.35382874 -7.63986777 0 0 Z " fill="#22B14C" transform="translate(457.078125,289.28515625)"/>
</svg>
